<svg xmlns="http://www.w3.org/2000/svg" width="163.839" height="163.839" fill-rule="evenodd" clip-rule="evenodd" image-rendering="optimizeQuality" shape-rendering="geometricPrecision" text-rendering="geometricPrecision" viewBox="0 0 1707 1707"><path d="M720 97c-27,0 -27,40 0,40l267 0c26,0 26,-40 0,-40l-267 0zm-462 137l1190 0 0 122 -1190 0 0 -122zm114 162l963 0 0 1090 -963 0 0 -1090zm0 1130l963 0 0 83c0,32 -26,58 -58,58l-848 0c-31,0 -57,-26 -57,-58l0 -83zm243 -1332l-364 0c-9,0 -17,4 -23,10l0 0c-6,6 -10,14 -10,23l0 149c0,11 9,20 20,20l94 0 0 1213c0,54 44,98 97,98l848 0c54,0 98,-44 98,-98l0 -1213 93 0c11,0 20,-9 20,-20l0 -149c0,-9 -3,-17 -9,-23l0 0c-6,-6 -15,-10 -23,-10l-364 0 0 -174c0,-11 -9,-20 -20,-20l-437 0c-11,0 -20,9 -20,20l0 174zm40 0l0 -154 397 0 0 154 -397 0zm486 389l0 762c0,26 40,26 40,0l0 -762c0,-27 -40,-27 -40,0zm-154 0l0 762c0,26 40,26 40,0l0 -762c0,-27 -40,-27 -40,0zm-154 0l0 762c0,26 40,26 40,0l0 -762c0,-27 -40,-27 -40,0zm-113 0c0,-27 -40,-27 -40,0l0 762c0,26 40,26 40,0l0 -762zm-154 0c0,-27 -40,-27 -40,0l0 762c0,26 40,26 40,0l0 -762z"/></svg>